# xmcd CD database file
#
# Track frame offsets:
#	150
#	17105
#	34737
#	52732
#	89320
#	103410
#	122632
#	139387
#	154805
#	176512
#
# Disc length: 2595 seconds
#
# Revision: 0
# Processed by: cddbd v1.5PL3 Copyright (c) Steve Scherf et al.
# Submitted via: CDex 1.50beta10
#
DISCID=810a210a
DTITLE=44MAGNUM - Danger
DYEAR=1900
DGENRE=Heavy Metal
TTITLE0=I'm On Fire
TTITLE1=Your Heart
TTITLE2=The Wild Beast
TTITLE3=You Love Me Don't You?
TTITLE4=No Standing Still
TTITLE5=Dirty Lady
TTITLE6=Baby, Come Together
TTITLE7=At Last I'm A Free Man
TTITLE8=Satisfaction
TTITLE9=I Don't Know What You Say (Bonus Track)
EXTD=
EXTT0=
EXTT1=
EXTT2=
EXTT3=
EXTT4=
EXTT5=
EXTT6=
EXTT7=
EXTT8=
EXTT9=
PLAYORDER=
